<svg xmlns="http://www.w3.org/2000/svg" width="327" height="61" viewBox="0 0 327 61"><path fill="#1c1b1a" d="M194.35 11.23l-12.76 38.54h8.76l12.76-38.54h-8.76z"/><path d="M133.66 29.87c4.33-2.59 7.76-4.33 7.76-8 0-2.95-1.85-4.17-4.22-4.17-2.64 0-4.7 1.53-4.7 5.39H124c0-6.71 4.75-11.83 13.14-11.83 6.82 0 12.68 3.38 12.68 11.19 0 6.23-6 10-9.67 12.15-5.06 3.37-6.44 4.54-6.44 7.49h15.84V49h-25.66c0-12 4.07-15.58 9.77-19.11m26.97 6.68c0 4 2.27 6.34 5.54 6.34a4.7 4.7 0 004.91-4.86c0-3.06-1.43-5.12-5.44-5.12h-3.32v-6.6h3.32c3.8 0 4.91-1.85 4.91-4.54s-1.74-4.12-4.22-4.12c-3.64 0-4.7 2.17-4.7 5.39h-8.55c0-6.29 3.9-11.83 13-11.83 6.81 0 12.88 3.43 12.88 10.35a8.38 8.38 0 01-5.44 8.18 9.05 9.05 0 016 8.92c0 7-6.28 11.09-13.3 11.09-9.14 0-14.21-5.38-14.21-13.2z" fill="#db3222"/></svg>