<svg xmlns="http://www.w3.org/2000/svg" width="260" height="61" viewBox="0 0 260 61"><path d="M55.09 0L26.56 25.9l-.06.1 15.62 34.41v.07l38.18-4h.08l8-37v-.08L55.16 0zm-8 9l8.13-7.39 18 10.51zM33.57 37.47l12.6-27.26 29.52 3.51 2.21 11.81L69 14.74v-.05l-23.73 6.5h-.08L43 46.32zm-5.49-11.19L44 11.87 32.65 36.35zm51.54 1.34l-2.48-13.27 9.79 5.7-2.81 13zM44.29 47.07l2.11-24.83 22.12-6.06 9.88 12 2 10.72-6.14 8.93-11.76 5.95zm35.83-16.78l3.39 4.12-2.06 3zm1.67 8.93l1.46-2.13-1 4.62zm-47.53.69L53.58 58 43 59.07zm46.49.83l.65 3.51-4.7 2.37zm-5.6 8.13l6.23-3.14-2 9.49-9.22 1zM46 49.11l14.86 5.48-5.83 2.94zm18.18 5.29l8.55-4.31-4.1 5.91zm-1.6.81l3.76 1.39-8.24.87z"/><path d="M116.61 17.43a5 5 0 00-5.12 5c0 2.9 1.78 5 5.16 5a5 5 0 004.24-2l-1.78-1.17a3.18 3.18 0 01-2.48 1.11 2.38 2.38 0 01-2.57-2.19h7.51v-.8a4.82 4.82 0 00-5-5zm-2.55 4.08a2.39 2.39 0 012.53-2.12 2.17 2.17 0 012.4 2.12zm41.52-4.08a5 5 0 00-5.12 5c0 2.9 1.78 5 5.16 5a5 5 0 004.24-2l-1.78-1.17a3.19 3.19 0 01-2.48 1.12 2.39 2.39 0 01-2.57-2.2h7.51v-.8a4.82 4.82 0 00-5-5zM153 21.51a2.38 2.38 0 012.53-2.11 2.18 2.18 0 012.47 2.11zm67.56 15a5 5 0 00-5.13 5c0 2.89 1.79 5 5.17 5a5 5 0 004.23-2l-1.77-1.18a3.16 3.16 0 01-2.48 1.12 2.4 2.4 0 01-2.58-2.2h7.51v-.8a4.82 4.82 0 00-5-5zM218 40.57a2.4 2.4 0 012.53-2.11 2.18 2.18 0 012.47 2.11zm-81.29-4.08a3.9 3.9 0 00-3.09 1.44v-6.12L131.24 33v13.17h2.41V41.5c0-2.22 1.26-2.9 2.45-2.9s2 .5 2 2.09v5.48h2.4v-5.76c0-2.89-1.7-3.92-3.73-3.92zm56.79 5.17c0-2.24 1.26-2.89 2.45-2.89s2 .49 2 2.09v5.31h2.4v-5.6c0-2.89-1.7-3.92-3.73-3.92a3.93 3.93 0 00-3.09 1.44v-1.27h-2.41v9.35h2.41zm-64.61-9.85L126.58 33v13.17h2.34zm-7 14.36h2.34v-9.68l-2.34 1.19zm1.21-11.07a1.47 1.47 0 10-1.51-1.46 1.49 1.49 0 001.51 1.46zm79.35 11.07h2.34v-9.68l-2.34 1.19zm1.18-11.07a1.47 1.47 0 10-1.51-1.46 1.49 1.49 0 001.51 1.46zm26.09 3.22v-1.5h-2.43v9.35h2.43v-4.41c0-1.68.93-2.79 2-2.79a2.53 2.53 0 011 .21l.52-2.36a4.34 4.34 0 00-1.08-.17 2.57 2.57 0 00-2.45 1.67zm-72.51 0v-1.5h-2.43v9.35h2.43v-4.41c0-1.68.94-2.79 2-2.79a2.53 2.53 0 011 .21l.52-2.36a4.34 4.34 0 00-1.08-.17 2.56 2.56 0 00-2.45 1.67zm7.5-19.07v-1.5h-2.42v9.36h2.42V22.7c0-1.68.94-2.79 2-2.79a2.55 2.55 0 011 .2l.52-2.36a4.58 4.58 0 00-1.08-.16 2.57 2.57 0 00-2.45 1.66zm-31.86-6.5L130.51 14v13.11h2.34zM105.2 25.08h-2.86V21h2.74c1.72 0 2.63.65 2.63 2 0 1.21-.68 2-2.51 2zm-2.86-9.62h2.45c1.65 0 2.36.67 2.36 1.74s-.81 1.85-2.26 1.85h-2.55zm5.35 4.35a2.89 2.89 0 001.8-2.83c0-3.27-3.09-3.55-5.43-3.55h-4.15v13.68h5.39c3 0 4.82-1.21 4.82-4a3.06 3.06 0 00-2.43-3.34zM142 22.6c0-2.24 1.26-2.9 2.44-2.9s2 .5 2 2.1v5.31h2.41v-5.6c0-2.89-1.7-3.92-3.73-3.92A3.89 3.89 0 00142 19v-1.25h-2.41v9.36H142zm-6.95 4.51h2.34v-9.68l-2.34 1.19zM136.23 16a1.47 1.47 0 100-2.93 1.47 1.47 0 100 2.93zm-10.45 3.22v-1.5h-2.43v9.36h2.43V22.7c0-1.68.93-2.79 2-2.79a2.55 2.55 0 011 .2l.52-2.36a4.58 4.58 0 00-1.08-.16 2.54 2.54 0 00-2.44 1.66zm-21.86 19.69h-1.58v-4.39h1.72c2.24 0 2.8.84 2.8 2.13s-.54 2.26-2.94 2.26zm-.59-6.42h-3.42v13.68h2.43v-5.23h1.43c3.61 0 5.56-1.11 5.56-4.26 0-3.33-2.18-4.19-6-4.19zm44.15 11.71a2.63 2.63 0 01-2.92-2.77 2.68 2.68 0 012.8-2.79 2.78 2.78 0 01.12 5.56zm2.68-6.27a4.33 4.33 0 00-3.26-1.28 4.77 4.77 0 00-4.79 4.85 4.57 4.57 0 004.9 4.84 4.33 4.33 0 003.15-1.23v1.06h2.4v-9.35h-2.4zm-34.07-1.44a3.9 3.9 0 00-3.09 1.44v-6.12L110.59 33v13.17H113V41.5c0-2.22 1.26-2.9 2.45-2.9s2 .5 2 2.09v5.48h2.4v-5.76c0-2.89-1.7-3.92-3.73-3.92zm99 .33h-2.76l-2.94 3.75v-8.76L207 33v13.17h2.43v-4.31l3 4.31h3l-3.71-5.11zM184 44.47a3 3 0 113-3 2.91 2.91 0 01-3 3zm0-8a5.19 5.19 0 00-5.46 5c0 3 2.43 5 5.46 5s5.5-2.13 5.5-5-2.48-5-5.5-5zm-10.54.16a4.19 4.19 0 00-3.2 1.37 3.07 3.07 0 00-2.8-1.36 3.92 3.92 0 00-3.14 1.36v-1.18h-2.38v9.35h2.4V41.5c0-1.71.71-2.75 2.25-2.75a1.55 1.55 0 011.68 1.78v5.64h2.4v-4.65c0-1.77.75-2.75 2.18-2.75a1.57 1.57 0 011.74 1.8v5.6H177v-5.85c0-2.49-1.08-3.67-3.55-3.67z" fill-opacity=".85"/></svg>