<svg width="112" height="112" viewBox="0 0 112 112" fill="none" xmlns="http://www.w3.org/2000/svg"><path d="M92.59 72.466v13.879l-7.853-7.854-2.587 2.587 10.44 10.44v19.368h3.66V91.519l10.441-10.441-2.587-2.587-7.854 7.854v-13.88h-3.66zM79.784 85.273h-3.659v3.659h3.66v-3.66zm5.489 20.125h-3.66v3.659h3.66v-3.659zm25.613-16.466h-3.659v3.659h3.659v-3.66z" fill="#000"/><path d="M103.568 99.91h-3.659v3.658h3.659v-3.659zm7.318 7.317h-3.659v3.659h3.659v-3.659zM87.102 94.42h-3.659v3.66h3.66v-3.66zm-78.67-7.318a8.032 8.032 0 003.605-.865l7.372 8.847v15.802h3.66V95.084l7.371-8.847a8.032 8.032 0 003.605.865 6.915 6.915 0 007.319-6.403 6.914 6.914 0 00-7.319-6.403 6.914 6.914 0 00-7.318 6.403 5.734 5.734 0 00.966 3.118l-4.625 5.55v-13.47a6.622 6.622 0 005.489-6.175 6.914 6.914 0 00-7.318-6.404 6.915 6.915 0 00-7.319 6.404 6.622 6.622 0 005.49 6.176v13.47l-4.626-5.551a5.734 5.734 0 00.966-3.118 6.914 6.914 0 00-7.318-6.403 6.914 6.914 0 00-7.318 6.403 6.915 6.915 0 007.318 6.403zm25.613-9.148c1.984 0 3.66 1.257 3.66 2.745 0 1.487-1.676 2.744-3.66 2.744-1.983 0-3.659-1.257-3.659-2.744 0-1.488 1.676-2.745 3.66-2.745zM17.58 69.722c0-1.488 1.675-2.745 3.659-2.745 1.983 0 3.659 1.257 3.659 2.745 0 1.487-1.676 2.744-3.66 2.744-1.983 0-3.658-1.257-3.658-2.744zm-9.148 8.233c1.983 0 3.659 1.256 3.659 2.744 0 1.487-1.676 2.744-3.66 2.744-1.982 0-3.658-1.257-3.658-2.744 0-1.488 1.676-2.745 3.659-2.745zm0-21.955c0 1.907.113 3.812.337 5.705l3.634-.433A44.708 44.708 0 0112.091 56a43.575 43.575 0 0117.565-35.13l-2.198-2.927A47.205 47.205 0 008.432 56z" fill="#000"/><path d="M31.412 92.385l-2.051 3.03a47.616 47.616 0 0049.473 2.324l-1.758-3.209a43.957 43.957 0 01-45.664-2.145zM99.91 56a43.923 43.923 0 01-1.757 12.332l3.512 1.028a47.63 47.63 0 00-17.12-51.414l-2.197 2.925A43.584 43.584 0 0199.909 56zM43.497 8.22c-5.474.962-9.452 4.719-9.452 9.13a8.467 8.467 0 003.84 6.845 7.69 7.69 0 00-1.243 4.133c0 5.17 5.48 9.377 12.217 9.377a15.3 15.3 0 005.311-.939v22.893h3.66V37.17c1.308.352 2.657.531 4.012.535 6.736 0 12.218-4.206 12.218-9.377a7.544 7.544 0 00-.881-3.526 8.762 8.762 0 004.775-7.451c0-4.795-4.713-8.76-10.805-9.31-1.4-4.04-6.16-6.927-11.798-6.927-5.735 0-10.54 2.967-11.854 7.105zm3.327 1.851c.337-2.971 4.082-5.298 8.527-5.298 4.415 0 8.158 2.309 8.525 5.258a1.872 1.872 0 001.861 1.602c4.639 0 8.558 2.619 8.558 5.718 0 2.068-1.725 3.988-4.502 5.012a1.829 1.829 0 00-.7 2.97 4.445 4.445 0 011.307 2.995c0 3.1-3.92 5.717-8.558 5.717-1.368 0-2.726-.238-4.012-.705v-4.026l6.782-6.782-2.587-2.587-4.195 4.195v-8.39h-3.66v8.39l-4.195-4.195-2.587 2.587 6.782 6.782v3.446a11.291 11.291 0 01-5.311 1.285c-4.639 0-8.559-2.618-8.559-5.717a4.601 4.601 0 011.614-3.288 1.832 1.832 0 00-.475-2.996 5.588 5.588 0 01-3.734-4.693c0-2.81 3.276-5.298 7.46-5.664a1.828 1.828 0 001.659-1.616z" fill="#000"/></svg>