<svg viewBox="0 0 40 40" fill="none" xmlns="http://www.w3.org/2000/svg">
	<g fill-rule="evenodd" clip-rule="evenodd" fill="#fff">
		<path d="M0 40h40V0H0v40zm2.12262-2.1232H37.8767V2.12231H2.12262V37.8768z" />
		<path
			d="M9.28993 11.7512c0 .9332.26726 1.6873.80197 2.266.5352.5783 1.2875.8664 2.2537.8664.9702 0 1.7206-.2881 2.2556-.8664.535-.5787.8025-1.3328.8025-2.266 0-.9347-.2675-1.6914-.8025-2.26806-.535-.57593-1.2854-.8662-2.2556-.8662-.9662 0-1.7185.29027-2.2537.8662-.53471.57666-.80197 1.33336-.80197 2.26806zm-3.82313-.0004c0-.9866.17852-1.87816.53486-2.67442.35652-.80016.84586-1.48413 1.46592-2.0521.61987-.56833 1.34955-1.0079 2.19134-1.31057.84158-.30674 1.73728-.46029 2.68668-.46029.9518 0 1.8474.15355 2.6869.46029.8418.30267 1.5717.74224 2.1937 1.31057.6177.56797 1.1069 1.25194 1.4634 2.0521.3567.79626.5351 1.68782.5351 2.67442 0 .9829-.1784 1.8763-.5351 2.6745-.3565.7978-.8457 1.48-1.4634 2.0501-.622.5701-1.3519 1.0056-2.1937 1.3122-.8395.3051-1.7351.4585-2.6869.4585-.9494 0-1.8451-.1534-2.68668-.4585-.84179-.3066-1.57147-.7421-2.19134-1.3122-.62006-.5701-1.1094-1.2523-1.46592-2.0501-.35634-.7982-.53486-1.6916-.53486-2.6745zM24.6873 27.5924l-4.1278-5.7574h4.5113l2.1894 3.3627 2.1146-3.3627h4.2545l-4.0262 5.7574 4.7638 6.6237h-4.5068l-2.7018-4.1257-2.9043 4.1257h-4.4571l4.8904-6.6237z"
		/>
	</g>
</svg>
