<svg viewBox="0 0 40 40" xmlns="http://www.w3.org/2000/svg" xmlns:xlink="http://www.w3.org/1999/xlink"><defs><filter x="-5%" y="-5%" width="110%" height="110%" filterUnits="objectBoundingBox" id="b"><feGaussianBlur stdDeviation="1.5" in="SourceAlpha" result="shadowBlurInner1"/><feOffset dy="1" in="shadowBlurInner1" result="shadowOffsetInner1"/><feComposite in="shadowOffsetInner1" in2="SourceAlpha" operator="arithmetic" k2="-1" k3="1" result="shadowInnerInner1"/><feColorMatrix values="0 0 0 0 0 0 0 0 0 0 0 0 0 0 0 0 0 0 0.5 0" in="shadowInnerInner1"/></filter><filter x="-6.9%" y="-6.9%" width="113.8%" height="113.8%" filterUnits="objectBoundingBox" id="d"><feGaussianBlur stdDeviation="1.5" in="SourceAlpha" result="shadowBlurInner1"/><feOffset dy="1" in="shadowBlurInner1" result="shadowOffsetInner1"/><feComposite in="shadowOffsetInner1" in2="SourceAlpha" operator="arithmetic" k2="-1" k3="1" result="shadowInnerInner1"/><feColorMatrix values="0 0 0 0 0 0 0 0 0 0 0 0 0 0 0 0 0 0 0.5 0" in="shadowInnerInner1"/></filter><path d="M0 40h40V0H0v40zm2.123-2.123h35.754V2.122H2.123v35.755z" id="a"/><path d="M9.29 11.751c0 .933.267 1.688.802 2.266.535.579 1.287.867 2.254.867.97 0 1.72-.288 2.255-.867.535-.578.803-1.333.803-2.266 0-.934-.268-1.691-.803-2.268-.535-.576-1.285-.866-2.255-.866-.967 0-1.719.29-2.254.866-.535.577-.802 1.334-.802 2.268zm-3.823 0c0-.987.178-1.878.535-2.675.356-.8.846-1.484 1.466-2.052a6.419 6.419 0 012.19-1.31 7.785 7.785 0 012.688-.46c.951 0 1.847.153 2.687.46a6.45 6.45 0 012.193 1.31 6.159 6.159 0 011.464 2.052c.356.797.535 1.688.535 2.675 0 .983-.179 1.876-.535 2.674a6.196 6.196 0 01-1.464 2.05 6.488 6.488 0 01-2.193 1.313 7.806 7.806 0 01-2.687.458c-.95 0-1.845-.153-2.687-.458a6.457 6.457 0 01-2.191-1.313 6.17 6.17 0 01-1.466-2.05c-.357-.798-.535-1.691-.535-2.674zm19.22 15.841l-4.128-5.757h4.512l2.19 3.363 2.114-3.363h4.254l-4.026 5.757 4.764 6.624H29.86l-2.702-4.126-2.904 4.126h-4.457l4.89-6.624z" id="c"/></defs><g fill="none" fill-rule="evenodd"><use fill="#FFF" xlink:href="#a"/><use fill="#000" filter="url(#b)" xlink:href="#a"/><use fill="#FFF" xlink:href="#c"/><use fill="#000" filter="url(#d)" xlink:href="#c"/></g></svg>