<svg width="108" height="104" viewBox="0 0 108 104" fill="none" xmlns="http://www.w3.org/2000/svg">
	<path
		d="M24.024 104C10.776 104 0 93.1813 0 79.8939c0-13.36 10.776-24.2272 24.024-24.2272 13.176 0 23.904 10.8672 23.904 24.2272C47.928 93.1813 37.212 104 24.024 104zm0-44.1461c-10.956 0-19.86 8.9913-19.86 20.0279 0 10.976 8.904 19.9069 19.86 19.9069 10.884 0 19.74-8.9309 19.74-19.9069 0-11.0366-8.856-20.0279-19.74-20.0279zM91.08 104c-9.264 0-16.788-7.5876-16.788-16.93 0-9.4028 7.536-17.063 16.788-17.063 9.324 0 16.92 7.6481 16.92 17.063 0 9.3303-7.584 16.93-16.92 16.93zm0-29.8059c-6.96 0-12.624 5.7724-12.624 12.8638 0 7.0189 5.664 12.7308 12.624 12.7308 7.032 0 12.744-5.7119 12.744-12.7308.012-7.0914-5.712-12.8638-12.744-12.8638z"
		fill="#000"
	/>
	<path
		d="M52.344 81.9874c-1.152 0-2.088-.9318-2.088-2.1057 0-14.6549-11.772-26.5748-26.232-26.5748-1.152 0-2.088-.9318-2.088-2.1057 0-1.1738.936-2.1056 2.088-2.1056 16.764 0 30.396 13.8078 30.396 30.774.012 1.186-.924 2.1178-2.076 2.1178zM70.728 81.7454c-.228 0-.468-.0484-.696-.121-1.08-.3872-1.644-1.5974-1.26-2.6865 3.36-9.4876 12.324-15.8529 22.308-15.8529 1.152 0 2.088.9318 2.088 2.1056 0 1.1739-.936 2.1057-2.088 2.1057-8.232 0-15.612 5.252-18.384 13.0696-.312.8471-1.104 1.3795-1.968 1.3795z"
		fill="#000"
	/>
	<path
		d="M57.612 63.811c-1.056 0-1.956-.8108-2.076-1.8879l-3.732-37.1757h-39.54v26.4539c0 1.1617-.936 2.1056-2.088 2.1056-1.15199 0-2.08799-.9318-2.08799-2.1056V22.6418c0-1.1618.936-2.1057 2.08799-2.1057h43.512c1.068 0 1.968.8108 2.076 1.8879l3.924 39.0635c.12 1.1496-.72 2.1904-1.86 2.2993-.072.0242-.144.0242-.216.0242z"
		fill="#000"
	/>
	<path
		d="M4.416 61.5964H2.088C.936 61.5964 0 60.6525 0 59.4907v-8.2895c0-1.1617.936-2.1056 2.088-2.1056h21.948c1.152 0 2.088.9318 2.088 2.1056 0 1.1739-.936 2.1057-2.088 2.1057H4.164v4.0903h.24c1.152 0 2.088.9318 2.088 2.1056 0 1.1497-.924 2.0936-2.076 2.0936zM77.472 94.8513H49.524c-1.152 0-2.088-.9318-2.088-2.1056 0-1.1618.936-2.1057 2.088-2.1057h27.948c1.152 0 2.088.9318 2.088 2.1057 0 1.1617-.936 2.1056-2.088 2.1056zM56.508 53.3069H43.764c-1.152 0-2.088-.9318-2.088-2.1057 0-1.1738.936-2.1056 2.088-2.1056h12.744c1.152 0 2.088.9318 2.088 2.1056 0 1.1739-.936 2.1057-2.088 2.1057zM25.9921 46.8811c-1.152 0-2.088-.9318-2.088-2.1056V22.654c0-1.1617.936-2.1057 2.088-2.1057 1.152 0 2.088.9319 2.088 2.1057v22.1215c-.012 1.1617-.936 2.1056-2.088 2.1056z"
		fill="#000"
	/>
	<path
		d="M101.508 77.4131c-1.152 0-2.0881-.9318-2.0881-2.1057V61.7175c0-4.1024-3.432-7.5876-8.148-8.3016l-35.532-4.9374c-1.14-.1573-1.932-1.2223-1.776-2.3719.156-1.1496 1.212-1.9362 2.352-1.8031l35.544 4.9495c6.804 1.0165 11.7241 6.2685 11.7241 12.4645v13.602c0 1.1618-.936 2.0936-2.076 2.0936zM72.696 77.5341H51.972c-1.152 0-2.088-.9318-2.088-2.1057 0-1.1738.936-2.1056 2.088-2.1056h20.712c1.152 0 2.088.9318 2.088 2.1056 0 1.1739-.924 2.1057-2.076 2.1057z"
		fill="#000"
	/>
	<path
		d="M82.128 51.8306c-1.152 0-2.088-.9318-2.088-2.1056V38.1075c0-.9923-1.836-1.4037-1.836 0v4.3324c0 1.1617-.936 2.1056-2.088 2.1056-1.152 0-2.088-.9318-2.088-2.1056v-4.3324c0-2.8559 2.256-5.1915 5.028-5.1915 2.892 0 5.148 2.2751 5.148 5.1915V49.725c.012 1.1617-.924 2.1056-2.076 2.1056zM24.024 95.4684c-8.58 0-15.56404-6.9825-15.56404-15.5746 0-8.6525 6.98404-15.6956 15.56404-15.6956 8.52 0 15.444 7.0431 15.444 15.6956.012 8.58-6.924 15.5746-15.444 15.5746zm0-27.0831c-6.288 0-11.4 5.1553-11.4 11.4964 0 6.2686 5.112 11.3754 11.4 11.3754 6.216 0 11.28-5.1068 11.28-11.3754 0-6.329-5.052-11.4964-11.28-11.4964zM91.08 93.1087c-3.372 0-6-2.6623-6-6.0507 0-3.4126 2.7-6.1839 6-6.1839 1.152 0 2.088.9319 2.088 2.1057 0 1.1617-.936 2.1056-2.088 2.1056-1.008 0-1.836.8956-1.836 1.9847 0 1.0528.792 1.8515 1.836 1.8515s1.836-.7987 1.836-1.8515c0-1.1618.936-2.1057 2.088-2.1057 1.152 0 2.088.9318 2.088 2.1057 0 3.3884-2.64 6.0386-6.012 6.0386z"
		fill="#000"
	/>
	<path
		d="M24.024 85.9447c-3.324 0-6.132-2.7713-6.132-6.0508 0-3.4126 2.748-6.1838 6.132-6.1838 1.152 0 2.088.9318 2.088 2.1056 0 1.1739-.936 2.1057-2.088 2.1057-1.068 0-1.956.9076-1.956 1.9846 0 .9681.936 1.8516 1.956 1.8516.924 0 1.836-.9198 1.836-1.8516 0-1.1617.936-2.1056 2.088-2.1056 1.152 0 2.088.9318 2.088 2.1056 0 3.2674-2.748 6.0387-6.012 6.0387zM79.068 37.1152c-1.152 0-2.088-.9318-2.088-2.1056V24.6265c0-1.1617.936-2.1056 2.088-2.1056 1.152 0 2.088.9318 2.088 2.1056v10.3831c0 1.1617-.936 2.1056-2.088 2.1056zM74.16 20.3063c-.528 0-1.068-.2057-1.476-.6172-.816-.8229-.816-2.154 0-2.9769 3.468-3.4974 9.228-3.5216 12.84-.0243.828.7987.864 2.1299.06 2.9649s-2.112.8713-2.94.0605c-1.992-1.912-5.124-1.9241-7.02-.0242-.396.4115-.924.6172-1.464.6172z"
		fill="#000"
	/>
	<path
		d="M69.264 15.3568c-.528 0-1.056-.1937-1.452-.593-.828-.8108-.84-2.142-.036-2.977 2.976-3.07375 6.972-4.78005 11.22-4.80426 4.44.03631 8.388 1.68211 11.472 4.79216.816.8229.816 2.1541 0 2.977-.816.8229-2.136.8229-2.952 0-2.292-2.3114-5.448-3.5094-8.508-3.5578-3.132.0121-6.072 1.2827-8.268 3.5457-.396.4114-.936.6172-1.476.6172z"
		fill="#000"
	/>
	<path
		d="M64.2359 10.4073c-.54 0-1.068-.2058-1.476-.61721-.816-.8229-.816-2.15406 0-2.97696C67.1279 2.42029 72.9239 0 79.0679 0S91.008 2.42029 95.376 6.82523c.816.8229.816 2.15406 0 2.97696-.816.82291-2.1361.82291-2.9521 0-3.576-3.60624-8.316-5.59088-13.356-5.59088-5.04 0-9.78 1.97254-13.356 5.59088-.408.41141-.948.60511-1.476.60511z"
		fill="#000"
	/>
</svg>
