<svg width="124" height="122" viewBox="0 0 124 122" fill="none" xmlns="http://www.w3.org/2000/svg"><path d="M12.03 61.17c-.54 0-1.07-.22-1.44-.61L.56 50.12c-.74-.77-.74-2 0-2.77l16.2-16.86c.75-.78 2.13-.79 2.88 0l10.03 10.43c.74.77.74 2 0 2.77l-16.2 16.86c-.38.39-.9.62-1.44.62zM4.77 48.74l7.25 7.55 13.43-13.97-7.25-7.55L4.77 48.74zm44.52-26.35A2.004 2.004 0 0147.85 19l.73-.76c.76-.8 2.03-.82 2.83-.06.8.77.82 2.03.06 2.83l-.73.76c-.4.42-.92.62-1.45.62z" fill="#000"/><path d="M40.74 31.29c-.54 0-1.06-.22-1.44-.61L29.28 20.24c-.74-.77-.74-2 0-2.77L45.48.61c.37-.39.9-.61 1.44-.61.54 0 1.06.22 1.44.61l10.03 10.43c.75.78.74 2.01-.01 2.78l-2.8 2.88c-.77.79-2.04.81-2.83.04s-.81-2.04-.04-2.83l1.45-1.49-7.24-7.54-13.43 13.98 7.25 7.55 3.03-3.15c.76-.8 2.03-.82 2.83-.06.8.77.82 2.03.06 2.83l-4.47 4.65c-.38.39-.9.61-1.45.61z" fill="#000"/><path d="M29.77 45.92c-.54 0-1.07-.22-1.44-.61L15.22 31.66c-.74-.77-.74-2 0-2.77l12.52-13.02c.75-.78 2.13-.79 2.88 0l13.11 13.64c.74.77.74 2 0 2.77L31.21 45.3c-.38.39-.9.62-1.44.62zM19.43 30.27l10.34 10.76 9.74-10.14-10.34-10.75-9.74 10.13zm.77 22.4c-.52 0-1.03-.2-1.42-.6l-4.23-4.28c-.78-.78-.77-2.05.02-2.83.78-.78 2.05-.77 2.83.02l4.23 4.28c.78.78.77 2.05-.02 2.83-.39.39-.9.58-1.41.58zm23.63-35.03c-.52 0-1.03-.2-1.42-.59l-5.09-5.15c-.78-.78-.77-2.05.02-2.83.78-.77 2.05-.77 2.83.02l5.09 5.15a1.995 1.995 0 01-1.43 3.4z" fill="#000"/><path d="M29.47 33.82c1.767 0 3.2-1.45 3.2-3.24 0-1.79-1.433-3.24-3.2-3.24s-3.2 1.45-3.2 3.24c0 1.79 1.433 3.24 3.2 3.24zm10.79 9.75c-.53 0-1.05-.21-1.44-.61l-4.12-4.28c-.77-.8-.74-2.06.06-2.83s2.06-.74 2.83.06l4.12 4.28c.77.8.74 2.06-.06 2.83-.39.36-.89.55-1.39.55zm13.32 17.16c-1.49 0-2.88-.58-3.94-1.64-2.16-2.17-2.16-5.7 0-7.88a5.53 5.53 0 013.93-1.63c1.49 0 2.88.58 3.93 1.63 2.16 2.17 2.16 5.7 0 7.88a5.426 5.426 0 01-3.92 1.64zm0-7.15c-.42 0-.81.16-1.1.46-.61.61-.61 1.61 0 2.23.29.3.69.46 1.1.46.42 0 .81-.16 1.1-.46.61-.61.61-1.61 0-2.23-.29-.29-.68-.46-1.1-.46z" fill="#000"/><path d="M39.14 57.52c-.54 0-1.06-.22-1.44-.61-3.65-3.8-3.65-9.97 0-13.76l3.76-3.91c1.79-1.86 4.17-2.88 6.72-2.88s4.94 1.02 6.72 2.88c.74.77.74 2 0 2.77l-14.32 14.9c-.37.39-.89.61-1.44.61zm9.04-17.17c-1.45 0-2.82.59-3.84 1.65l-3.76 3.91c-1.67 1.74-2.06 4.31-1.17 6.44l11.04-11.49a5.31 5.31 0 00-2.27-.51z" fill="#000"/><path d="M50.52 53.92c-.52 0-1.05-.2-1.44-.61l-3.9-4.04c-.77-.79-.74-2.06.05-2.83s2.06-.75 2.83.05l3.9 4.04c.77.79.74 2.06-.05 2.83-.39.38-.89.56-1.39.56zM77.38 122h-30.7c-1.1 0-2-.9-2-2v-.12c0-.12.01-.25.03-.37 1.94-10.19 11.38-17.32 20.63-15.57 7.08 1.34 12.84 7.82 14 15.77.08.57-.09 1.16-.47 1.6-.38.44-.91.69-1.49.69zm-28.14-4h25.65c-1.54-5.21-5.53-9.23-10.28-10.13-6.44-1.21-13.03 3.3-15.37 10.13z" fill="#000"/><path d="M60.03 107.72c-.06 0-.12 0-.17-.01-1.1-.1-1.92-1.06-1.82-2.16.56-6.49-.23-12.82-2.34-18.81-.37-1.04.18-2.18 1.22-2.55 1.04-.36 2.18.18 2.55 1.22 2.3 6.53 3.16 13.42 2.55 20.48a1.994 1.994 0 01-1.99 1.83z" fill="#000"/><path d="M59.76 97.63c-.18 0-.36-.02-.54-.08a2 2 0 01-1.38-2.47c.17-.61 1.18-3.79 4.04-6.13.85-.7 2.12-.57 2.81.29.7.86.57 2.11-.29 2.81-2.01 1.64-2.69 4.01-2.72 4.11-.24.89-1.05 1.47-1.92 1.47zm-1.75-8.24c-.28 0-.57-.06-.83-.18-2.97-1.36-5.55-3.43-7.46-5.99-4.6-6.15-4.1-13.11-3.67-15.82.08-.53.38-1.01.82-1.32a2 2 0 011.52-.33c.85.16 8.42 1.75 11.65 9.27 2.62 6.09.51 11.64-.2 13.2-.22.48-.62.86-1.12 1.04-.23.09-.47.13-.71.13zM49.8 70.35c-.06 2.67.39 6.82 3.12 10.47 1.08 1.44 2.43 2.69 3.97 3.68.48-1.91.78-4.85-.53-7.9-1.55-3.61-4.53-5.41-6.56-6.25z" fill="#000"/><path d="M71.58 97.21c-.32 0-.64-.01-.96-.03-5.18-.35-8.5-3.39-9.69-4.68-.46-.5-.64-1.2-.46-1.86.14-.54.32-1.08.53-1.6 1.55-3.8 4.82-6.46 8.51-6.94 5.6-.74 11.06 3.61 12.18 9.7.13.7-.12 1.41-.66 1.88-1.27 1.09-4.64 3.53-9.45 3.53zm-6.89-6.63c1.2 1.04 3.3 2.41 6.2 2.61 2.95.19 5.27-.95 6.57-1.82-1.13-3.41-4.26-5.72-7.43-5.3-2.28.3-4.32 2.02-5.33 4.49-.01 0-.01.01-.01.02zm-1.84-.78h.01-.01zm-3.83 25.1c-.94 0-1.77-.66-1.96-1.62l-.22-1.13a2.002 2.002 0 113.93-.77l.22 1.13c.21 1.08-.49 2.14-1.58 2.35-.14.03-.27.04-.39.04zm8.85 2.03h-1.14c-1.1 0-2-.9-2-2s.9-2 2-2h1.14c1.1 0 2 .9 2 2s-.9 2-2 2zM42.35 122h-30.7c-1.1 0-2-.9-2-2v-.62c0-.12.01-.25.03-.37 1.94-10.19 11.38-17.32 20.63-15.57 7.08 1.34 12.84 7.82 14 15.77.01.1.02.19.02.29v.5c.02 1.1-.88 2-1.98 2zm-30.7-2.62h.01-.01zm2.41-1.38h25.95c-1.42-5.45-5.52-9.7-10.42-10.63-6.6-1.24-13.35 3.52-15.53 10.63z" fill="#000"/><path d="M25.01 107.22c-.06 0-.12 0-.17-.01-1.1-.1-1.92-1.06-1.82-2.16.56-6.49-.23-12.82-2.34-18.81-.37-1.04.18-2.18 1.22-2.55 1.04-.36 2.18.18 2.55 1.22 2.3 6.53 3.16 13.42 2.55 20.48a2.008 2.008 0 01-1.99 1.83z" fill="#000"/><path d="M24.74 97.13c-.18 0-.36-.03-.54-.08a2 2 0 01-1.38-2.47c.17-.59 1.13-3.64 3.84-5.96.84-.72 2.1-.62 2.82.22.72.84.62 2.1-.22 2.82-1.91 1.63-2.57 3.91-2.59 4-.26.89-1.06 1.47-1.93 1.47zm-1.75-8.24c-.28 0-.57-.06-.83-.18-2.97-1.36-5.55-3.43-7.46-5.99-4.59-6.14-4.1-13.11-3.67-15.82.08-.53.38-1.01.82-1.32.44-.31.98-.43 1.52-.34.85.15 8.42 1.73 11.65 9.27 2.62 6.09.51 11.64-.2 13.2-.22.48-.62.86-1.12 1.04-.24.1-.48.14-.71.14zm-8.22-19.04c-.06 2.68.39 6.82 3.12 10.48 1.08 1.44 2.43 2.69 3.97 3.68.48-1.91.78-4.85-.53-7.9-1.55-3.63-4.52-5.42-6.56-6.26z" fill="#000"/><path d="M36.56 96.71c-.31 0-.63-.01-.96-.03-5.18-.35-8.5-3.39-9.69-4.68-.46-.5-.64-1.2-.47-1.86 1.19-4.56 4.82-7.99 9.05-8.54 5.6-.73 11.06 3.61 12.18 9.7.13.7-.12 1.41-.66 1.88-1.28 1.09-4.65 3.53-9.45 3.53zm-6.9-6.63c1.2 1.04 3.3 2.41 6.2 2.61 2.95.19 5.27-.95 6.57-1.82-1.13-3.41-4.26-5.71-7.43-5.3-2.3.29-4.34 2.06-5.34 4.51zm-4.51 14.32c-1.06 0-1.94-.83-2-1.89-.08-1.48-.88-2.78-2.09-3.39-.99-.5-1.38-1.7-.88-2.69.5-.99 1.7-1.38 2.69-.88 2.48 1.26 4.12 3.84 4.28 6.75.06 1.1-.79 2.05-1.89 2.11-.04-.01-.07-.01-.11-.01z" fill="#000"/><path d="M13.13 102.82c-2.32 0-4.25-.53-5.58-1.05a2.019 2.019 0 01-1.26-2.14c.49-3.53 2.67-6.46 5.67-7.64 4.21-1.66 9.19.35 11.58 4.68.46.84.27 1.88-.46 2.5-1.53 1.28-4.09 2.93-7.62 3.47-.81.12-1.59.18-2.33.18zm-2.44-4.27a11.365 11.365 0 008.3-1.37c-1.53-1.55-3.73-2.2-5.56-1.48-1.21.48-2.18 1.52-2.74 2.85zm11.16 18.38h-1.14c-1.1 0-2-.9-2-2s.9-2 2-2h1.14c1.1 0 2 .9 2 2s-.9 2-2 2zm7.77-3.61h-1.14c-1.1 0-2-.9-2-2s.9-2 2-2h1.14a2 2 0 110 4zm65.93-5.11c-.06 0-.12 0-.17-.01-1.1-.1-1.92-1.06-1.82-2.16.56-6.49-.23-12.82-2.34-18.81-.37-1.04.18-2.18 1.22-2.55 1.04-.36 2.18.18 2.55 1.22 2.3 6.53 3.16 13.42 2.55 20.48a2 2 0 01-1.99 1.83z" fill="#000"/><path d="M95.28 98.13c-.18 0-.36-.03-.55-.08a1.988 1.988 0 01-1.39-2.41c.15-.79.59-2.98 4.12-5.22.93-.59 2.17-.31 2.76.62.59.93.31 2.17-.62 2.76-2.09 1.32-2.27 2.25-2.33 2.56-.03.13-.05.24-.07.32-.25.87-1.05 1.45-1.92 1.45zm-1.75-8.24c-.29 0-.57-.06-.83-.18-2.97-1.36-5.55-3.43-7.46-5.99-4.59-6.14-4.1-13.11-3.67-15.82.08-.53.38-1.01.82-1.32.44-.31.99-.43 1.52-.34.85.15 8.42 1.73 11.65 9.27 2.62 6.09.51 11.64-.2 13.2-.22.48-.62.86-1.12 1.04-.24.1-.48.14-.71.14zm-8.22-19.04c-.06 2.68.39 6.82 3.12 10.48 1.08 1.44 2.43 2.69 3.97 3.68.48-1.91.78-4.85-.53-7.9-1.55-3.63-4.52-5.42-6.56-6.26z" fill="#000"/><path d="M107.1 97.71c-.31 0-.64-.01-.96-.03-5.18-.35-8.5-3.39-9.69-4.68-.46-.5-.64-1.2-.46-1.86 1.19-4.56 4.82-7.99 9.05-8.54 5.6-.74 11.06 3.61 12.18 9.7.13.7-.12 1.41-.66 1.88-1.29 1.09-4.66 3.53-9.46 3.53zm-6.9-6.63c1.2 1.04 3.31 2.41 6.2 2.61 2.95.19 5.27-.95 6.57-1.82-1.13-3.41-4.26-5.71-7.43-5.3-2.3.29-4.34 2.06-5.34 4.51zm-7.11 25.4c-.44 0-.89-.15-1.26-.45l-1.11-.9a1.99 1.99 0 01-.28-2.81c.7-.86 1.96-.98 2.81-.28l1.11.9c.86.7.98 1.96.28 2.81-.4.48-.97.73-1.55.73zm8.85-.68h-1.14c-1.1 0-2-.9-2-2s.9-2 2-2h1.14c1.1 0 2 .9 2 2s-.9 2-2 2z" fill="#000"/><path d="M112.8 122H82.29c-.6 0-1.17-.27-1.55-.74-.38-.47-.53-1.08-.4-1.67 2.14-10.09 11.34-16.88 20.53-15.14 6.96 1.31 12.55 7.43 13.9 15.22.1.58-.06 1.18-.44 1.63-.38.45-.94.7-1.53.7zm-27.84-4h25.29c-1.63-5-5.49-8.75-10.12-9.63-6.22-1.16-12.69 3.11-15.17 9.63z" fill="#000"/><path d="M122 122H2c-1.1 0-2-.9-2-2s.9-2 2-2h120c1.1 0 2 .9 2 2s-.9 2-2 2z" fill="#000"/></svg>