<svg width="108" height="104" viewBox="0 0 108 104" fill="none" xmlns="http://www.w3.org/2000/svg"><path d="M24.024 104C10.776 104 0 93.181 0 79.894c0-13.36 10.776-24.227 24.024-24.227 13.176 0 23.904 10.867 23.904 24.227C47.928 93.18 37.212 104 24.024 104zm0-44.146c-10.956 0-19.86 8.991-19.86 20.028 0 10.976 8.904 19.907 19.86 19.907 10.884 0 19.74-8.931 19.74-19.907 0-11.037-8.856-20.028-19.74-20.028zM91.08 104c-9.264 0-16.788-7.588-16.788-16.93 0-9.403 7.536-17.063 16.788-17.063 9.324 0 16.92 7.648 16.92 17.063 0 9.33-7.584 16.93-16.92 16.93zm0-29.806c-6.96 0-12.624 5.772-12.624 12.864 0 7.019 5.664 12.73 12.624 12.73 7.032 0 12.744-5.711 12.744-12.73.012-7.092-5.712-12.864-12.744-12.864z" fill="#000"/><path d="M52.344 81.987a2.09 2.09 0 01-2.088-2.105c0-14.655-11.772-26.575-26.232-26.575a2.09 2.09 0 01-2.088-2.106 2.09 2.09 0 012.088-2.105c16.764 0 30.396 13.807 30.396 30.774a2.076 2.076 0 01-2.076 2.117zm18.384-.242c-.228 0-.468-.048-.696-.12-1.08-.388-1.644-1.598-1.26-2.687 3.36-9.488 12.324-15.853 22.308-15.853a2.09 2.09 0 012.088 2.106 2.09 2.09 0 01-2.088 2.105c-8.232 0-15.612 5.252-18.384 13.07a2.095 2.095 0 01-1.968 1.38z" fill="#000"/><path d="M57.612 63.811c-1.056 0-1.956-.81-2.076-1.888l-3.732-37.176h-39.54v26.454a2.098 2.098 0 01-2.088 2.106A2.09 2.09 0 018.088 51.2V22.64c0-1.161.936-2.105 2.088-2.105h43.512a2.09 2.09 0 012.076 1.888l3.924 39.063c.12 1.15-.72 2.19-1.86 2.3-.072.024-.144.024-.216.024z" fill="#000"/><path d="M4.416 61.596H2.088A2.098 2.098 0 010 59.491V51.2c0-1.162.936-2.105 2.088-2.105h21.948a2.09 2.09 0 012.088 2.105 2.09 2.09 0 01-2.088 2.106H4.164v4.09h.24a2.09 2.09 0 012.088 2.106c0 1.15-.924 2.093-2.076 2.093zm73.056 33.255H49.524a2.09 2.09 0 01-2.088-2.105c0-1.162.936-2.106 2.088-2.106h27.948a2.09 2.09 0 012.088 2.106 2.098 2.098 0 01-2.088 2.105zM56.508 53.307H43.764a2.09 2.09 0 01-2.088-2.106 2.09 2.09 0 012.088-2.105h12.744a2.09 2.09 0 012.088 2.105 2.09 2.09 0 01-2.088 2.106zM25.992 46.88a2.09 2.09 0 01-2.088-2.105V22.654c0-1.162.936-2.106 2.088-2.106a2.09 2.09 0 012.088 2.106v22.122c-.012 1.161-.936 2.105-2.088 2.105z" fill="#000"/><path d="M101.508 77.413a2.09 2.09 0 01-2.088-2.106v-13.59c0-4.102-3.432-7.587-8.148-8.301L55.74 48.479c-1.14-.158-1.932-1.223-1.776-2.372.156-1.15 1.212-1.937 2.352-1.803l35.544 4.949c6.804 1.016 11.724 6.269 11.724 12.464V75.32a2.086 2.086 0 01-2.076 2.093zm-28.812.121H51.972a2.09 2.09 0 01-2.088-2.106 2.09 2.09 0 012.088-2.105h20.712a2.09 2.09 0 012.088 2.105c0 1.174-.924 2.106-2.076 2.106z" fill="#000"/><path d="M82.128 51.83a2.09 2.09 0 01-2.088-2.105V38.108c0-.993-1.836-1.404-1.836 0v4.332a2.098 2.098 0 01-2.088 2.106 2.09 2.09 0 01-2.088-2.106v-4.332c0-2.856 2.256-5.192 5.028-5.192 2.892 0 5.148 2.275 5.148 5.192v11.617a2.08 2.08 0 01-2.076 2.106zM24.024 95.469c-8.58 0-15.564-6.982-15.564-15.574 0-8.653 6.984-15.696 15.564-15.696 8.52 0 15.444 7.043 15.444 15.696.012 8.58-6.924 15.574-15.444 15.574zm0-27.083c-6.288 0-11.4 5.156-11.4 11.497 0 6.268 5.112 11.375 11.4 11.375 6.216 0 11.28-5.107 11.28-11.375 0-6.33-5.052-11.497-11.28-11.497zM91.08 93.11c-3.372 0-6-2.663-6-6.051 0-3.413 2.7-6.184 6-6.184a2.09 2.09 0 012.088 2.106 2.098 2.098 0 01-2.088 2.105c-1.008 0-1.836.896-1.836 1.985 0 1.053.792 1.852 1.836 1.852s1.836-.8 1.836-1.852c0-1.162.936-2.106 2.088-2.106a2.09 2.09 0 012.088 2.106c0 3.389-2.64 6.039-6.012 6.039z" fill="#000"/><path d="M24.024 85.945c-3.324 0-6.132-2.772-6.132-6.051 0-3.413 2.748-6.184 6.132-6.184a2.09 2.09 0 012.088 2.106 2.09 2.09 0 01-2.088 2.105c-1.068 0-1.956.908-1.956 1.985 0 .968.936 1.852 1.956 1.852.924 0 1.836-.92 1.836-1.852 0-1.162.936-2.106 2.088-2.106a2.09 2.09 0 012.088 2.106c0 3.267-2.748 6.039-6.012 6.039zm55.044-48.83a2.09 2.09 0 01-2.088-2.105V24.627c0-1.162.936-2.106 2.088-2.106a2.09 2.09 0 012.088 2.106V35.01a2.098 2.098 0 01-2.088 2.105zM74.16 20.306a2.082 2.082 0 01-1.476-.617 2.116 2.116 0 010-2.977c3.468-3.497 9.228-3.521 12.84-.024.828.799.864 2.13.06 2.965s-2.112.871-2.94.06c-1.992-1.912-5.124-1.924-7.02-.024a2.015 2.015 0 01-1.464.617z" fill="#000"/><path d="M69.264 15.357a2.033 2.033 0 01-1.452-.593 2.116 2.116 0 01-.036-2.977c2.976-3.074 6.972-4.78 11.22-4.804 4.44.036 8.388 1.682 11.472 4.792a2.116 2.116 0 010 2.977 2.074 2.074 0 01-2.952 0c-2.292-2.312-5.448-3.51-8.508-3.558-3.132.012-6.072 1.283-8.268 3.546a2.042 2.042 0 01-1.476.617z" fill="#000"/><path d="M64.236 10.407c-.54 0-1.068-.206-1.476-.617a2.116 2.116 0 010-2.977C67.128 2.42 72.924 0 79.068 0s11.94 2.42 16.308 6.825a2.116 2.116 0 010 2.977 2.074 2.074 0 01-2.952 0c-3.576-3.606-8.316-5.59-13.356-5.59-5.04 0-9.78 1.972-13.356 5.59a2.07 2.07 0 01-1.476.605z" fill="#000"/></svg>