<svg viewBox="0 0 524 524" fill="none" xmlns="http://www.w3.org/2000/svg">
	<g fill-rule="evenodd" clip-rule="evenodd" fill="#F2C94C">
		<path
			d="M98.5282 523.287l424.7588-98.529L424.759-.000003 0 98.5282 98.5282 523.287zm17.3108-27.773l379.671-88.069-88.07-379.671-379.6704 88.069 88.0694 379.671z"
		/>
		<path
			d="M127.594 200.427c2.299 9.909 6.994 17.259 14.097 22.088 7.108 4.822 15.807 6.029 26.066 3.649 10.303-2.39 17.562-7.298 21.819-14.756 4.256-7.464 5.238-16.131 2.939-26.04-2.302-9.927-7.006-17.304-14.108-22.11-7.1-4.798-15.784-6.032-26.086-3.642-10.259 2.38-17.534 7.315-21.798 14.75-4.258 7.44-5.232 16.135-2.929 26.061zm-40.5977 9.417c-2.4304-10.477-2.7307-20.384-.9082-29.718 1.8149-9.375 5.3265-17.843 10.5117-25.402 5.1822-7.562 11.8482-14.027 20.0412-19.315 8.182-5.33 17.314-9.167 27.397-11.506 10.107-2.344 19.995-2.92 29.666-1.73 9.684 1.14 18.517 4.01 26.522 8.513 7.959 4.51 14.838 10.568 20.595 18.187 5.749 7.577 9.839 16.605 12.269 27.083 2.422 10.437 2.728 20.363.907 29.718-1.821 9.35-5.335 17.8-10.49 25.375-5.201 7.586-11.879 14.009-20.063 19.338-8.162 5.308-17.295 9.143-27.402 11.487-10.083 2.339-19.971 2.916-29.66 1.749-9.694-1.182-18.515-4.009-26.502-8.536-7.988-4.527-14.865-10.566-20.6163-18.16-5.7501-7.599-9.8463-16.645-12.2674-27.083zM330.119 330.718l-58.015-50.969 47.906-11.113 31.532 30.316 14.172-40.917 45.178-10.48-28.572 71.055 66.903 58.603-47.858 11.101-38.853-37.155-20.679 50.964-47.329 10.979 35.615-82.384z"
		/>
	</g>
</svg>
