<svg width="524" height="524" viewBox="0 0 524 524" xmlns="http://www.w3.org/2000/svg" xmlns:xlink="http://www.w3.org/1999/xlink"><defs><filter x="-.4%" y="-.4%" width="100.8%" height="100.8%" filterUnits="objectBoundingBox" id="b"><feGaussianBlur stdDeviation="1.5" in="SourceAlpha" result="shadowBlurInner1"/><feOffset dy="1" in="shadowBlurInner1" result="shadowOffsetInner1"/><feComposite in="shadowOffsetInner1" in2="SourceAlpha" operator="arithmetic" k2="-1" k3="1" result="shadowInnerInner1"/><feColorMatrix values="0 0 0 0 0 0 0 0 0 0 0 0 0 0 0 0 0 0 0.5 0" in="shadowInnerInner1"/></filter><filter x="-.5%" y="-.7%" width="101.1%" height="101.4%" filterUnits="objectBoundingBox" id="d"><feGaussianBlur stdDeviation="1.5" in="SourceAlpha" result="shadowBlurInner1"/><feOffset dy="1" in="shadowBlurInner1" result="shadowOffsetInner1"/><feComposite in="shadowOffsetInner1" in2="SourceAlpha" operator="arithmetic" k2="-1" k3="1" result="shadowInnerInner1"/><feColorMatrix values="0 0 0 0 0 0 0 0 0 0 0 0 0 0 0 0 0 0 0.5 0" in="shadowInnerInner1"/></filter><path d="M98.528 523.287l424.759-98.529L424.759 0 0 98.528l98.528 424.759zm17.311-27.773l379.671-88.069-88.07-379.671-379.67 88.069 88.069 379.671z" id="a"/><path d="M127.594 200.427c2.299 9.909 6.994 17.259 14.097 22.088 7.108 4.822 15.807 6.029 26.066 3.649 10.303-2.39 17.562-7.298 21.819-14.756 4.256-7.464 5.238-16.131 2.939-26.04-2.302-9.927-7.006-17.304-14.108-22.11-7.1-4.798-15.784-6.032-26.086-3.642-10.259 2.38-17.534 7.315-21.798 14.75-4.258 7.44-5.232 16.135-2.929 26.061zm-40.598 9.417c-2.43-10.477-2.73-20.384-.908-29.718 1.815-9.375 5.327-17.843 10.512-25.402 5.182-7.562 11.848-14.027 20.041-19.315 8.182-5.33 17.314-9.167 27.397-11.506 10.107-2.344 19.995-2.92 29.666-1.73 9.684 1.14 18.517 4.01 26.522 8.513 7.959 4.51 14.838 10.568 20.595 18.187 5.749 7.577 9.839 16.605 12.269 27.083 2.422 10.437 2.728 20.363.907 29.718-1.821 9.35-5.335 17.8-10.49 25.375-5.201 7.586-11.879 14.009-20.063 19.338-8.162 5.308-17.295 9.143-27.402 11.487-10.083 2.339-19.971 2.916-29.66 1.749-9.694-1.182-18.515-4.009-26.502-8.536-7.988-4.527-14.865-10.566-20.616-18.16-5.75-7.599-9.847-16.645-12.268-27.083zM330.12 330.718l-58.015-50.969 47.906-11.113 31.532 30.316 14.172-40.917 45.178-10.48-28.572 71.055 66.903 58.603-47.858 11.101-38.853-37.155-20.679 50.964-47.329 10.979 35.615-82.384z" id="c"/></defs><g fill="none" fill-rule="evenodd"><use fill="#F2C94C" xlink:href="#a"/><use fill="#000" filter="url(#b)" xlink:href="#a"/><use fill="#F2C94C" xlink:href="#c"/><use fill="#000" filter="url(#d)" xlink:href="#c"/></g></svg>